<?xml version="1.0" encoding="utf-8"?>
<!-- Generator: Adobe Illustrator 21.1.0, SVG Export Plug-In . SVG Version: 6.00 Build 0)  -->
<svg version="1.0" id="Layer_1" xmlns="http://www.w3.org/2000/svg" xmlns:xlink="http://www.w3.org/1999/xlink" x="0px" y="0px"
	 viewBox="0 0 993 100" style="enable-background:new 0 0 993 100;" xml:space="preserve">
<style type="text/css">
	.st0{fill:none;stroke:#000000;}
</style>
<g>
	<path class="st0" d="M-490.8,14.5c3.9,2.4,9.7,4.4,15.7,4.4c9,0,14.2-4.7,14.2-11.6c0-6.4-3.6-10-12.8-13.5
		c-11.1-3.9-18-9.7-18-19.3c0-10.6,8.8-18.5,22-18.5c7,0,12,1.6,15,3.3l-2.4,7.2c-2.2-1.2-6.8-3.2-12.9-3.2
		c-9.3,0-12.8,5.5-12.8,10.2c0,6.4,4.1,9.5,13.5,13.1c11.5,4.4,17.4,10,17.4,20c0,10.5-7.8,19.6-23.8,19.6c-6.6,0-13.7-1.9-17.4-4.3
		L-490.8,14.5z"/>
	<path class="st0" d="M-404.8,23.4c-2.3,1.2-7.5,2.8-14,2.8c-14.7,0-24.3-10-24.3-24.9c0-15,10.3-25.9,26.2-25.9
		c5.2,0,9.9,1.3,12.3,2.5l-2,6.9c-2.1-1.2-5.4-2.3-10.3-2.3c-11.2,0-17.3,8.3-17.3,18.5c0,11.3,7.3,18.3,16.9,18.3
		c5,0,8.4-1.3,10.9-2.4L-404.8,23.4z"/>
	<path class="st0" d="M-367.4,25.2l-0.7-6.2h-0.3c-2.7,3.8-8,7.3-14.9,7.3c-9.9,0-14.9-7-14.9-14c0-11.8,10.5-18.3,29.4-18.2v-1
		c0-4-1.1-11.3-11.1-11.3c-4.5,0-9.3,1.4-12.7,3.6l-2-5.9c4-2.6,9.9-4.3,16-4.3c14.9,0,18.6,10.2,18.6,20v18.3
		c0,4.2,0.2,8.4,0.8,11.7H-367.4z M-368.7,0.3c-9.7-0.2-20.7,1.5-20.7,11c0,5.8,3.8,8.5,8.4,8.5c6.4,0,10.4-4,11.8-8.2
		c0.3-0.9,0.5-1.9,0.5-2.8V0.3z"/>
	<path class="st0" d="M-345.8-8.4c0-5.8-0.1-10.7-0.4-15.2h7.8l0.3,9.6h0.4c2.2-6.6,7.6-10.7,13.5-10.7c1,0,1.7,0.1,2.5,0.3v8.4
		c-0.9-0.2-1.8-0.3-3-0.3c-6.3,0-10.7,4.7-11.9,11.4c-0.2,1.2-0.4,2.6-0.4,4.1v26h-8.8V-8.4z"/>
	<path class="st0" d="M-307-23.6l10.7,28.9c1.1,3.2,2.3,7.1,3.1,10h0.2c0.9-2.9,1.9-6.7,3.1-10.2l9.7-28.7h9.4l-13.3,34.8
		c-6.4,16.7-10.7,25.3-16.7,30.6c-4.3,3.8-8.7,5.3-10.9,5.8l-2.2-7.5c2.2-0.7,5.1-2.1,7.8-4.3c2.4-1.9,5.4-5.3,7.5-9.9
		c0.4-0.9,0.7-1.6,0.7-2.1s-0.2-1.2-0.6-2.3l-18.1-45H-307z"/>
	<path class="st0" d="M-199.2-46.4v59c0,4.3,0.1,9.3,0.4,12.6h-8l-0.4-8.5h-0.2c-2.7,5.4-8.7,9.6-16.6,9.6
		c-11.8,0-20.9-10-20.9-24.8c-0.1-16.2,10-26.2,21.9-26.2c7.5,0,12.5,3.5,14.7,7.5h0.2v-29.2H-199.2z M-208-3.7
		c0-1.1-0.1-2.6-0.4-3.7c-1.3-5.7-6.2-10.3-12.8-10.3c-9.2,0-14.6,8.1-14.6,18.9c0,9.9,4.8,18.1,14.4,18.1c6,0,11.4-3.9,13-10.6
		c0.3-1.2,0.4-2.4,0.4-3.8V-3.7z"/>
	<path class="st0" d="M-140.2,0.4c0,18.1-12.5,25.9-24.3,25.9c-13.2,0-23.4-9.7-23.4-25.1c0-16.3,10.7-25.9,24.2-25.9
		C-149.7-24.7-140.2-14.5-140.2,0.4z M-179,0.9c0,10.7,6.2,18.8,14.8,18.8c8.5,0,14.8-8,14.8-19c0-8.3-4.1-18.8-14.6-18.8
		C-174.4-18.1-179-8.4-179,0.9z"/>
	<path class="st0" d="M-129-46.4h8.9v71.6h-8.9V-46.4z"/>
	<path class="st0" d="M-105.2-46.4h8.9v71.6h-8.9V-46.4z"/>
	<path class="st0" d="M-59.1,25.2v-42.1H-66v-6.8h6.9v-2.3c0-6.9,1.5-13.1,5.6-17.1c3.3-3.2,7.8-4.5,11.9-4.5c3.1,0,5.9,0.7,7.6,1.4
		l-1.2,6.9c-1.3-0.6-3.1-1.1-5.7-1.1c-7.6,0-9.5,6.7-9.5,14.1v2.6h11.8v6.8h-11.8v42.1H-59.1z"/>
	<path class="st0" d="M-30.6-8.4c0-5.8-0.1-10.7-0.4-15.2h7.8l0.3,9.6h0.4c2.2-6.6,7.6-10.7,13.5-10.7c1,0,1.7,0.1,2.5,0.3v8.4
		c-0.9-0.2-1.8-0.3-3-0.3c-6.3,0-10.7,4.7-11.9,11.4c-0.2,1.2-0.4,2.6-0.4,4.1v26h-8.8V-8.4z"/>
	<path class="st0" d="M45.6,0.4c0,18.1-12.5,25.9-24.3,25.9C8.1,26.3-2.1,16.6-2.1,1.2c0-16.3,10.7-25.9,24.2-25.9
		C36.1-24.7,45.6-14.5,45.6,0.4z M6.9,0.9c0,10.7,6.2,18.8,14.8,18.8c8.5,0,14.8-8,14.8-19c0-8.3-4.1-18.8-14.6-18.8
		C11.4-18.1,6.9-8.4,6.9,0.9z"/>
	<path class="st0" d="M56.8-10.4c0-5-0.1-9.2-0.4-13.2h7.8l0.4,7.9h0.3c2.7-4.6,7.3-9,15.3-9c6.7,0,11.7,4,13.8,9.8h0.2
		c1.5-2.7,3.4-4.8,5.4-6.4c2.9-2.2,6.2-3.4,10.8-3.4c6.5,0,16,4.2,16,21.2v28.8h-8.7V-2.4c0-9.4-3.4-15-10.6-15c-5,0-9,3.7-10.5,8.1
		c-0.4,1.2-0.7,2.8-0.7,4.4v30.2h-8.7V-4c0-7.8-3.4-13.4-10.2-13.4c-5.5,0-9.6,4.4-11,8.9c-0.5,1.3-0.7,2.8-0.7,4.3v29.5h-8.7V-10.4
		z"/>
	<path class="st0" d="M173-37.6v14h12.7v6.8H173V9.5c0,6.1,1.7,9.5,6.7,9.5c2.3,0,4-0.3,5.1-0.6l0.4,6.7c-1.7,0.7-4.4,1.2-7.9,1.2
		c-4.1,0-7.5-1.3-9.6-3.7c-2.5-2.6-3.4-7-3.4-12.7v-26.6h-7.6v-6.8h7.6v-11.7L173-37.6z"/>
	<path class="st0" d="M195.7-46.4h8.9v30.5h0.2c1.4-2.5,3.6-4.7,6.4-6.3c2.6-1.5,5.8-2.5,9.1-2.5c6.6,0,17.1,4,17.1,20.9v29.1h-8.9
		v-28c0-7.9-2.9-14.5-11.3-14.5c-5.8,0-10.3,4-11.9,8.9c-0.5,1.2-0.6,2.5-0.6,4.2v29.5h-8.9V-46.4z"/>
	<path class="st0" d="M256.7,2.4c0.2,12,7.9,16.9,16.7,16.9c6.4,0,10.2-1.1,13.5-2.5l1.5,6.4c-3.1,1.4-8.5,3-16.2,3
		c-15,0-24-9.9-24-24.6c0-14.7,8.7-26.3,22.9-26.3c15.9,0,20.2,14,20.2,23c0,1.8-0.2,3.2-0.3,4.1H256.7z M282.7-3.9
		c0.1-5.6-2.3-14.4-12.3-14.4c-9,0-12.9,8.3-13.6,14.4H282.7z"/>
	<path class="st0" d="M323.7-7.7c0-6.3-0.2-11.3-0.4-15.9h8l0.4,8.4h0.2c3.6-6,9.4-9.5,17.4-9.5c11.8,0,20.7,10,20.7,24.8
		c0,17.6-10.7,26.2-22.2,26.2c-6.5,0-12.1-2.8-15-7.7h-0.2v26.5h-8.8V-7.7z M332.4,5.3c0,1.3,0.2,2.5,0.4,3.6
		c1.6,6.2,7,10.4,13.3,10.4c9.4,0,14.8-7.7,14.8-18.9c0-9.8-5.1-18.2-14.5-18.2c-6.1,0-11.7,4.3-13.4,11c-0.3,1.1-0.6,2.4-0.6,3.6
		V5.3z"/>
	<path class="st0" d="M408.1,25.2l-0.7-6.2h-0.3c-2.7,3.8-8,7.3-14.9,7.3c-9.9,0-14.9-7-14.9-14c0-11.8,10.5-18.3,29.4-18.2v-1
		c0-4-1.1-11.3-11.1-11.3c-4.5,0-9.3,1.4-12.7,3.6l-2-5.9c4-2.6,9.9-4.3,16-4.3c14.9,0,18.6,10.2,18.6,20v18.3
		c0,4.2,0.2,8.4,0.8,11.7H408.1z M406.8,0.3c-9.7-0.2-20.7,1.5-20.7,11c0,5.8,3.8,8.5,8.4,8.5c6.4,0,10.4-4,11.8-8.2
		c0.3-0.9,0.5-1.9,0.5-2.8V0.3z"/>
	<path class="st0" d="M428.5,16.1c2.6,1.7,7.3,3.5,11.7,3.5c6.5,0,9.5-3.2,9.5-7.3c0-4.2-2.5-6.6-9.1-9c-8.8-3.1-12.9-8-12.9-13.8
		c0-7.9,6.4-14.3,16.8-14.3c4.9,0,9.3,1.4,12,3l-2.2,6.5c-1.9-1.2-5.4-2.8-10-2.8c-5.2,0-8.2,3-8.2,6.7c0,4,2.9,5.9,9.3,8.3
		c8.5,3.2,12.8,7.5,12.8,14.7c0,8.6-6.7,14.6-18.3,14.6c-5.3,0-10.3-1.3-13.7-3.3L428.5,16.1z"/>
	<path class="st0" d="M480.4-37.6v14h12.7v6.8h-12.7V9.5c0,6.1,1.7,9.5,6.7,9.5c2.3,0,4-0.3,5.1-0.6l0.4,6.7
		c-1.7,0.7-4.4,1.2-7.9,1.2c-4.1,0-7.5-1.3-9.6-3.7c-2.5-2.6-3.4-7-3.4-12.7v-26.6h-7.6v-6.8h7.6v-11.7L480.4-37.6z"/>
</g>
</svg>
